<?xml version="1.0" encoding="utf-8"?>
<!-- Generator: Adobe Illustrator 24.3.0, SVG Export Plug-In . SVG Version: 6.00 Build 0)  -->
<svg version="1.1" id="Layer_1" xmlns="http://www.w3.org/2000/svg" xmlns:xlink="http://www.w3.org/1999/xlink" x="0px" y="0px"
	 viewBox="0 0 30.8 32.4" style="enable-background:new 0 0 30.8 32.4;" xml:space="preserve">
<style type="text/css">
	.st0{fill:#0B8261;}
</style>
<g transform="matrix(1, 0, 0, 1, 0, 0)">
	<path id="Icon_ionic-ios-lock-2" class="st0" d="M24.8,11.2h-1.9V7.6C23,3.5,19.7,0.1,15.6,0S8,3.2,8,7.4v0.1v3.7H6.1
		c-1.7,0-3.1,1.4-3.1,3.1v14.9c0,1.7,1.4,3.1,3.1,3.1h18.7c1.7,0,3.1-1.4,3.1-3.1V14.3C27.9,12.6,26.5,11.2,24.8,11.2z M16.5,20.9
		v5.4c0,0.6-0.4,1.1-1,1.1c-0.6,0-1.1-0.4-1.1-1c0,0,0,0,0-0.1v-5.4c-1.2-0.6-1.8-2.1-1.1-3.3c0.6-1.2,2.1-1.8,3.3-1.1
		c1.2,0.6,1.8,2.1,1.1,3.3C17.5,20.3,17.1,20.7,16.5,20.9L16.5,20.9z M20.8,11.2H10.2V7.5c0-2.9,2.4-5.3,5.4-5.2
		c2.9,0,5.2,2.4,5.2,5.2V11.2z"/>
</g>
</svg>
