<svg id="humaaans_standing-18" data-name="humaaans/standing-18" xmlns="http://www.w3.org/2000/svg" width="369.418" height="517.157" viewBox="0 0 369.418 517.157">
  <g id="humaaan-2" transform="translate(0 0)">
    <g id="Head_Front_Airy" data-name="Head/Front/Airy" transform="translate(156.465)">
      <g id="Head" transform="translate(0 45.383)">
        <path id="Path_33" data-name="Path 33" d="M40.293,41.191c5.5-6.46,9.228-14.376,8.605-23.247C47.1-7.614,11.527-1.991,4.606,10.909s-6.1,45.621,2.846,47.926c3.567.919,11.166-1.333,18.9-5.994L21.5,87.183H50.16Z" transform="translate(0)" fill="#b28b67" fill-rule="evenodd"/>
      </g>
      <path id="hair" d="M-57.647,33.842C-53.869,33.222-43.7,32.8-41.821,32.8c1.2,0,2.5.274,3.208-.827.581-.9.368-2.426.542-3.472.2-1.215.488-2.414.777-3.611A36.714,36.714,0,0,1-33.482,15.2,29.766,29.766,0,0,1-19.373,2.429C-12.694-.442-5.136-1.1,2.048-.517,9.737.106,16.7,2.644,23.955,5.032a45.911,45.911,0,0,0,21.4,2.06c7.289-1.12,12.8-5.07,18.945-8.82C70.591-5.567,77.784-8.077,85.225-7.5c6.946.539,13.347,3.407,19.091,7.238,5.374,3.584,9.808,7.9,12.311,13.967,2.693,6.529,2.691,13.7-1.738,19.466C108.47,41.535,96.554,43.7,86.64,43.482a53.973,53.973,0,0,1-16.78-3.075c-7.22-2.54-13.46-6.844-20.214-10.336a52.6,52.6,0,0,0-9.881-3.954c-3.333-.941-6.615-1.373-9.633.64-3.192,2.13-6.053,4.222-9.7,5.555A31.3,31.3,0,0,1,9.48,34.278c-7.262-.056-14.421-2.319-21.474-3.834-5.752-1.236-11.906-2.467-17.77-1.279-2.447.5-6.021,1.519-6.9,4.062,14.874,2.7,20.716,21.091,16.523,34.6C-22.409,75.11-36.013,83.631-41.3,79.8c-3.351-2.428-1.317-5.614,0-7.718,2.521-4.029,3.384-9.2-1.282-12.009-4.024-2.419-8.256,3.326-8.336,3.319-1.106-.087-10.664-5.492-17.249-13.38-6.5.385-7.482-3.9-5.931-7.4S-62.866,34.7-57.647,33.842Z" transform="translate(78.59 7.583)" fill="#191847" fill-rule="evenodd"/>
    </g>
    <g id="Bottom_Standing_Jogging" data-name="Bottom/Standing/Jogging" transform="translate(0 231.72)">
      <path id="Leg" d="M310.426,0,221.682,148.363,155.15,273.792h-14.33L252.295,0Z" transform="translate(-96.647 0)" fill="#997659" fill-rule="evenodd"/>
      <g id="Accessories_Shoe_Flat-Sneaker" data-name="Accessories/Shoe/Flat-Sneaker" transform="translate(0 260.753)">
        <path id="shoe" d="M68.348,28.19q2,5.35,2,8.006a59.928,59.928,0,0,1-1.076,9.428H1.916q-2.626-8.68,3.031-9.373t9.4-1.25L45.654,21.045a1.194,1.194,0,0,1,1.577.6l.013.031,2.012,4.882q5.237,2.443,8.511,2.443,2.66,0,7.348-2.149h0a2.389,2.389,0,0,1,3.167,1.176Q68.318,28.11,68.348,28.19Z" transform="translate(-1.083 -20.941)" fill="#b5b5b5" fill-rule="evenodd"/>
      </g>
      <path id="Pant" d="M155.071,253.707l-27.636-8.36q18.162-54.3,44.521-119.5T228.571,0h78.054Q272.986,76.711,235.3,139.4A943.569,943.569,0,0,1,155.071,253.707Z" transform="translate(-78.09 0)" fill="#11694e" fill-rule="evenodd"/>
      <path id="Leg-2" data-name="Leg" d="M70.719,0c8.376,52.136,24.53,118.746,26.055,120.8q1.525,2.056,109.768,36.782l-3.1,12.637Q74.366,151.6,67.418,141.322C60.469,131.047,25.775,49.877,12.338,0Z" transform="translate(148.892 0)" fill="#b28b67" fill-rule="evenodd"/>
      <path id="Pant-2" data-name="Pant" d="M208.72,146.66l-5.452,20.353q-96.545,8.468-118.31-12.237T35.345,0h74.429Q127.418,109.786,129.5,114.4T208.72,146.66Z" transform="translate(121.348 0)" fill="#148261" fill-rule="evenodd"/>
      <g id="Accessories_Shoe_Flat-Sneaker-2" data-name="Accessories/Shoe/Flat-Sneaker" transform="translate(369.418 153.373) rotate(100)">
        <path id="shoe-2" data-name="shoe" d="M2,17.434q-2-5.35-2-8.006A59.927,59.927,0,0,1,1.076,0H68.437q2.626,8.68-3.031,9.373t-9.4,1.25L24.7,24.58a1.194,1.194,0,0,1-1.577-.6l-.013-.031L21.1,19.063q-5.237-2.443-8.511-2.443-2.66,0-7.348,2.149h0A2.389,2.389,0,0,1,2.07,17.592Q2.034,17.514,2,17.434Z" transform="translate(0 0)" fill="#b5b5b5" fill-rule="evenodd"/>
      </g>
    </g>
    <g id="Body_Jacket" data-name="Body/Jacket" transform="translate(51.759 106.304)">
      <path id="Skin" d="M96.267,96.54l-33.832,33q-14.766,6.3-24.2,13.909c-1.414,1.706-2.953,4.973,3.7,3.511s13.716-2.7,14.966-.538-2.434,5.479-.123,8.31q2.311,2.831,15.543-18.012L107.5,115.983Zm150.166,4.655-24.958.1q23.115,74.62,24.958,79.186c2.764,6.849-3.084,17.279-5.585,22.884,8.145,3.645,7.277-9.853,17.552-5.073,9.378,4.363,16.513,12.269,27.348,5.583,1.332-.822,2.792-3.917-.735-6.335-8.787-6.025-21.45-16.571-23.161-20.042Q258.352,170.4,246.433,101.194Z" transform="translate(-37.006 9.899)" fill="#b28b67" fill-rule="evenodd"/>
      <path id="Coat-Back" d="M0,153.267l10.133,2.665q32.375-64.046,103.324-112.5L83.651,0C35.016,47.627,3.167,98.369,0,153.267Z" transform="translate(151.861 159.052) rotate(175)" fill="#191847" fill-rule="evenodd"/>
      <path id="Shirt" d="M189.451,136.15H97.49q31.958-77.7,31.958-132.016L157.188,0C178.989,35.063,185.146,78.232,189.451,136.15Z" transform="translate(-5.93 0)" fill="#dde3e9" fill-rule="evenodd"/>
      <path id="Coat-Front" d="M90.424.02,90.413,0H88.6q-3.25.112-9.9.4L72,19.559q-1.064,35.033-12.422,141.2h60.282q-.237,7.333-.782,14.8H163.9Q153.843,62.1,90.446,0l-.022.02Z" transform="translate(61.421 0)" fill="#2f3676" fill-rule="evenodd"/>
      <path id="Shade" d="M112.243,89.077q-2.573,45.708-12.886,63.019h16.853A315.1,315.1,0,0,0,112.243,89.077Z" transform="translate(65.055 9.134)" fill="rgba(0,0,0,0.1)" fill-rule="evenodd"/>
      <path id="Light" d="M141.417,113.94l-29.725-13.819V113.94Z" transform="translate(26.445 10.266)" fill="rgba(255,255,255,0.2)" fill-rule="evenodd"/>
    </g>
  </g>
</svg>
